<?xml version="1.0" encoding="UTF-8" standalone="no"?>
<svg
   height="512"
   width="512"
   version="1.1"
   id="svg44"
   sodipodi:docname="magit-red.svg"
   inkscape:version="1.2.2 (b0a8486541, 2022-12-01)"
   xmlns:inkscape="http://www.inkscape.org/namespaces/inkscape"
   xmlns:sodipodi="http://sodipodi.sourceforge.net/DTD/sodipodi-0.dtd"
   xmlns="http://www.w3.org/2000/svg"
   xmlns:svg="http://www.w3.org/2000/svg">
  <defs
     id="defs48" />
  <sodipodi:namedview
     id="namedview46"
     pagecolor="#ffffff"
     bordercolor="#000000"
     borderopacity="0.25"
     inkscape:showpageshadow="2"
     inkscape:pageopacity="0.0"
     inkscape:pagecheckerboard="0"
     inkscape:deskcolor="#d1d1d1"
     showgrid="false"
     inkscape:zoom="1.5644531"
     inkscape:cx="128.1598"
     inkscape:cy="256.3196"
     inkscape:window-width="1920"
     inkscape:window-height="981"
     inkscape:window-x="0"
     inkscape:window-y="0"
     inkscape:window-maximized="1"
     inkscape:current-layer="svg44" />
  <path
     d="m206.2675781 491.4001465-185.6677322-185.6677246c-27.4664612-27.4664612-27.4664612-71.9983826 0-99.4648438l185.6677322-185.6677322c27.4664612-27.4664612 71.9983826-27.4664612 99.4648438 0l185.6677246 185.6677246c27.4664917 27.4664612 27.4664917 71.9983826 0 99.4648438l-185.6677246 185.6677322c-27.4664612 27.4664917-71.9983826 27.4664917-99.4648438 0zm72.7891541-113.329895-5.5873108-102.4770203c-23.2674408 17.8158569-93.9237671 20.9222412-122.6332703-.0004578l-5.586853 102.3694763c2.1898651 31.8556214 133.1361084 31.207367 133.8074341.1080018zm-105.9044037-84.8405152c-4.8161774-1.2472534-9.15625-2.7137146-12.8952332-4.3671875l-4.602478 94.1828918c4.4021149 2.4682922 10.0303345 4.6254578 16.5992737 6.3584595zm38.5500793-42.7794189-22.4894257-62.2876892h-23.7012787v65.9586487c3.8244476 1.3216858 8.5767365 2.4738159 14.0744476 3.40625v-46.78125l18.6176453 48.8580017c9.0479431.5759888 17.6534729.6450195 25.8676453.265625l20.2090912-48.9788666v47.1286774c5.5533142-.8189392 10.5004578-1.8469543 14.6622162-3.0422821v-66.8148041h-23.39888zm1.0313874 14.6238403c-43.5111694.254303-84.1908875-11.7316895-59.9896851-25.0600281l.0000153-15.5734406c-35.156723 5.0423279-48.5502167 13.5266724-48.5502167 23.1459351 0 15.4674835 48.2849579 28.0062408 108.4360809 28.0062408s109.83638-12.5387573 109.83638-28.0062408c0-9.6193542-18.5483398-18.1036987-46.6737366-23.1460419l.0000305 15.5731659c17.642151 11.5025788-8.1126403 24.3556367-63.0588683 25.0604096zm220.3642883 42.6380005 6.8411865-6.841217c1.960022-1.9597473 1.960022-5.1665039 0-7.1262817l-182.8751831-182.8754197c-2.1147461-2.0849152-5.06633-1.8593063-7.1260529 0l-6.8414307 6.8414459c-1.9595337 1.9595261-1.9595337 5.1662674 0 7.12603l182.875412 182.8754425c2.1566163 2.1792297 5.4645081 1.7557983 7.1260682 0zm-144.0197144-144.4073639 6.841217-6.711731-42.4185181-42.6769791-6.8414459 6.8404846zm-53.6755828-11.2501526h-16.5546875v-16.5542297h-11.0363159v16.5542297h-16.5542297v11.0363007h16.5542297v16.5542297h11.0363159v-16.5542297h16.5546875zm16.2486114-90.1663627h-16.5542297v-16.5542298h-11.0363007v16.5542298h-16.5546875v11.0363045h16.5546875v16.5542297h11.0363007v-16.5542298h16.5542297zm92.8874512 52.7537269v-11.036232h-44.1449585v11.036232z"
     id="path42"
     style="fill:#ff0000" />
</svg>
